<?xml version="1.0" encoding="utf-8"?>
<!-- Generator: Adobe Illustrator 19.0.0, SVG Export Plug-In . SVG Version: 6.00 Build 0)  -->
<svg version="1.1" id="Layer_1" xmlns="http://www.w3.org/2000/svg" xmlns:xlink="http://www.w3.org/1999/xlink" x="0px" y="0px"
	 viewBox="0 0 512 512" style="enable-background:new 0 0 512 512;" xml:space="preserve">
<style type="text/css">
	.st0{fill:#010101;}
</style>
<g>
	<path class="st0" d="M12.2,0h28.9c2.7,1.3,4.8,3.8,4.4,6.9c0,166,0,332.1,0,498.1c0.4,3.1-1.7,5.5-4.2,7h-29
		c-2.6-1.3-4.8-3.8-4.4-6.9c0-163,0-326,0-489c0-3.7-0.2-7.4,0.1-11.1C8.3,2.6,10.5,1.3,12.2,0z"/>
	<g>
		<path d="M135.1,46.7L135.1,46.7c4.9,0,9.8,0.2,14.6,0.7c20.4,2.1,42.4,8.9,67.1,21l0.3,0.1c10.7,5.1,21.2,10.7,32.3,16.7
			c22.2,12,45.2,24.5,71.1,32.2c13.7,4.2,28.3,6.3,43.5,6.3c19.4,0,39.3-3.4,59-10.2l0.2-0.1c20.3-7.2,39.5-17.9,56.9-31.4
			c0,70.1,0,152.1,0,234.4c-0.1,1-0.1,1.7-0.2,2.2c-1.2,0.9-2.7,2-4.2,3c-0.7,0.5-1.4,1-2.1,1.4c-22.5,14.7-51.6,23.6-86.5,26.6
			c-6.3,0.5-14.5,1-22.5,1c-8.7,0-16.3-0.6-23.1-1.9l-0.2,0c-25.8-4.5-49.8-17.6-75.2-31.4c-28.8-15.8-62.8-33-100.5-38.3
			c-9.4-1.4-19.1-2.1-28.9-2.1c-14.2,0-28.8,1.5-43.7,4.4c0-1.9,0-3.7,0-5.6V57.1c0-1,0-2,0-3c0-0.5,0-1,0-1.5
			C106.5,48.7,120.7,46.7,135.1,46.7 M135.1,22.7c-19.1,0-38.1,3.1-56.2,9.2c-3.9,1.3-8.2,3.5-9.1,7.9c-1.2,5.7-0.9,11.5-1,17.3
			c0,73,0,145.9,0,218.9c0.2,9.4-0.3,18.7,0.4,28c0.2,2.3,1.4,4.8,3.9,5.1c0.9,0.1,1.7,0.2,2.6,0.2c4.7,0,9.3-1.7,13.9-2.6
			c15.4-3.6,31.2-5.7,47-5.7c8.5,0,17,0.6,25.5,1.9c33.2,4.6,63.5,19.8,92.5,35.7c26.1,14.2,52.9,28.7,82.6,33.9
			c9.1,1.7,18.3,2.3,27.6,2.3c8.2,0,16.3-0.5,24.5-1.1c34.3-2.9,69-11.6,98-30.7c4.3-3,8.7-5.9,12.4-9.6c3.4-4.7,4.4-10.7,4.7-16.3
			c0-80.7,0-161.4,0-242.1c-0.2-16.7,0.3-33.4-0.3-50.1c-2.7,0.7-3.7,3.6-5.5,5.5c-21.7,27.1-50.5,48.9-83.3,60.5
			c-16.4,5.6-33.8,8.9-51.2,8.9c-12.3,0-24.6-1.7-36.5-5.3c-35.6-10.6-66.7-31.9-100.1-47.7c-23.7-11.5-48.9-20.6-75.3-23.3
			C146.4,22.9,140.7,22.7,135.1,22.7L135.1,22.7z"/>
	</g>
</g>
</svg>
