<?xml version="1.0" encoding="utf-8"?>
<!-- Generator: Adobe Illustrator 19.0.0, SVG Export Plug-In . SVG Version: 6.00 Build 0)  -->
<svg version="1.1" id="Layer_1" xmlns="http://www.w3.org/2000/svg" xmlns:xlink="http://www.w3.org/1999/xlink" x="0px" y="0px"
	 viewBox="0 0 512 512" style="enable-background:new 0 0 512 512;" xml:space="preserve">
<style type="text/css">
	.st0{fill:#010101;}
</style>
<g>
	<path class="st0" d="M12.2,0h28.9c2.7,1.3,4.8,3.8,4.4,6.9c0,166,0,332.1,0,498.1c0.4,3.1-1.7,5.5-4.2,7h-29
		c-2.6-1.3-4.8-3.8-4.4-6.9c0-163,0-326,0-489c0-3.7-0.2-7.4,0.1-11.1C8.3,2.6,10.5,1.3,12.2,0z"/>
	<path class="st0" d="M78.8,31.9c23.5-7.9,48.6-10.8,73.2-8.4c26.3,2.6,51.6,11.7,75.3,23.3c33.4,15.8,64.4,37,100.1,47.7
		c28.6,8.8,59.7,6,87.7-3.6c32.8-11.7,61.6-33.4,83.3-60.5c1.7-1.9,2.8-4.7,5.4-5.4c0.6,16.7,0.1,33.4,0.3,50.1
		c0,80.7,0,161.4,0,242.1c-0.3,5.7-1.3,11.7-4.7,16.3c-3.6,3.8-8.1,6.6-12.4,9.6c-29,19.1-63.7,27.8-98,30.7
		c-17.3,1.3-34.9,2-52-1.2c-29.6-5.2-56.4-19.7-82.6-33.9c-29-15.9-59.4-31-92.5-35.7c-24.1-3.6-48.8-1.8-72.4,3.8
		c-5.4,1.1-10.8,3.3-16.4,2.5c-2.5-0.3-3.7-2.9-3.9-5.1c-0.8-9.3-0.3-18.7-0.4-28c0-73,0-145.9,0-218.9c0-5.8-0.2-11.6,1-17.3
		C70.7,35.4,75,33.2,78.8,31.9z"/>
</g>
</svg>
