<?xml version="1.0" encoding="utf-8"?>
<!-- Generator: Adobe Illustrator 19.0.0, SVG Export Plug-In . SVG Version: 6.00 Build 0)  -->
<svg version="1.1" id="Layer_1" xmlns="http://www.w3.org/2000/svg" xmlns:xlink="http://www.w3.org/1999/xlink" x="0px" y="0px"
	 viewBox="-300 393 9.1 8" style="enable-background:new -300 393 9.1 8;" xml:space="preserve">
<style type="text/css">
	.st0{fill:#5087F8;}
</style>
<path class="st0" d="M-294,395.3v-2c0-0.2-0.1-0.3-0.3-0.3h-2.6c-0.2,0-0.3,0.1-0.3,0.3v2c0,0.5-0.3,0.9-0.6,1.1v1.5
	c0,0.2,0.1,0.3,0.3,0.3h1.6l0.3,2.7l0.3-2.7h1.6c0.2,0,0.3-0.1,0.3-0.3v-1.5C-293.7,396.3-294,395.8-294,395.3z M-296.5,393.7h1.9
	v0.3h-1.9V393.7z M-294,397.7h-3.2V397h3.2V397.7z M-297.2,396.7c0.5-0.3,0.6-1,0.6-1.3v-1h1.9v1c0,0.4,0.2,1,0.6,1.3H-297.2z"/>
</svg>
