<svg xmlns="http://www.w3.org/2000/svg" xmlns:xlink="http://www.w3.org/1999/xlink" preserveAspectRatio="xMidYMid" width="13" height="23" viewBox="0 0 13 23">
  <defs>
    <style>
      .cls-1 {
        fill: #5087f8;
        fill-rule: evenodd;
      }
    </style>
  </defs>
  <path d="M11.143,6.708 L11.143,0.958 C11.143,0.430 10.727,-0.000 10.214,-0.000 L2.786,-0.000 C2.272,-0.000 1.857,0.430 1.857,0.958 L1.857,6.708 C1.857,8.123 1.105,9.346 -0.000,10.010 L-0.000,14.375 C-0.000,14.904 0.415,15.333 0.929,15.333 L5.571,15.333 L6.500,23.000 L7.429,15.333 L12.071,15.333 C12.585,15.333 13.000,14.904 13.000,14.375 L13.000,10.010 C11.895,9.346 11.143,8.123 11.143,6.708 ZM3.714,1.917 L9.286,1.917 L9.286,2.875 L3.714,2.875 L3.714,1.917 ZM11.143,13.417 L1.857,13.417 L1.857,11.500 L11.143,11.500 L11.143,13.417 ZM1.857,10.542 C3.264,9.583 3.714,7.760 3.714,6.708 L3.714,3.833 L9.286,3.833 L9.286,6.708 C9.286,7.760 9.793,9.583 11.143,10.542 L1.857,10.542 Z" class="cls-1"/>
</svg>
